<?xml version="1.0" encoding="iso-8859-1"?>
<!-- Uploaded to: SVG Repo, www.svgrepo.com, Generator: SVG Repo Mixer Tools -->
<svg height="800px" width="800px" version="1.1" id="Layer_1" xmlns="http://www.w3.org/2000/svg" xmlns:xlink="http://www.w3.org/1999/xlink" 
	 viewBox="0 0 512 512" xml:space="preserve">
<path style="fill:#BDBDBD;" d="M485.311,95.859l-10.449,78.266l10.449,78.266c14.716,0,26.689-11.973,26.689-26.689V122.549
	C512,107.832,500.028,95.859,485.311,95.859z"/>
<path style="fill:#E4E4E4;" d="M485.311,95.859c-14.716,0-26.689,11.972-26.689,26.689v103.153
	c0,14.716,11.972,26.689,26.689,26.689l0,0V95.859L485.311,95.859z"/>
<path style="fill:#A43700;" d="M485.311,241.942l-10.449,86.828l10.449,87.37c14.716,0,26.689-11.973,26.689-26.689V268.631
	C512,253.915,500.028,241.942,485.311,241.942z"/>
<path style="fill:#DA6A1F;" d="M485.311,241.942c-14.716,0-26.689,11.972-26.689,26.689v120.819
	c0,14.716,11.972,26.689,26.689,26.689l0,0V241.942L485.311,241.942z"/>
<path style="fill:#BDBDBD;" d="M78.878,95.859v67.895c0,7.103-3.137,13.484-8.093,17.843V95.859H55.112L44.663,199.053
	l10.449,47.573h15.673v-30.043c22.776-6.77,39.44-27.884,39.44-52.829V95.859H78.878z"/>
<path style="fill:#E4E4E4;" d="M39.439,95.859v85.737c-4.956-4.359-8.092-10.739-8.092-17.843V95.859H0v67.895
	c0,24.945,16.663,46.059,39.439,52.829v30.043h15.673V95.859H39.439z"/>
<path style="fill:#A43700;" d="M55.112,241.942L44.663,328.77l10.449,87.37c14.716,0,26.689-11.973,26.689-26.689V268.631
	C81.802,253.915,69.828,241.942,55.112,241.942z"/>
<path style="fill:#DA6A1F;" d="M55.112,241.942c-14.716,0-26.689,11.972-26.689,26.689v120.819
	c0,14.716,11.972,26.689,26.689,26.689l0,0V241.942L55.112,241.942z"/>
<path style="fill:#BDBDBD;" d="M271.673,104.512l-20.898,151.487l20.898,151.487c83.664,0,151.487-67.823,151.487-151.487
	S355.337,104.512,271.673,104.512z"/>
<path style="fill:#E4E4E4;" d="M120.186,255.999c0,83.664,67.823,151.487,151.487,151.487V104.512
	C188.01,104.512,120.186,172.336,120.186,255.999z"/>
<path style="fill:#7C7C7C;" d="M271.673,156.757L271.673,156.757l-20.898,99.242l20.898,99.242l0,0
	c54.722,0,99.242-44.52,99.242-99.242S326.396,156.757,271.673,156.757z"/>
<path style="fill:#BDBDBD;" d="M172.431,255.999c0,54.722,44.52,99.242,99.242,99.242V156.757
	C216.951,156.757,172.431,201.277,172.431,255.999z"/>
</svg>